<svg width="189" height="157" viewBox="0 0 189 157" fill="none" xmlns="http://www.w3.org/2000/svg">
<mask id="mask0_473_2539" style="mask-type:alpha" maskUnits="userSpaceOnUse" x="-59" y="-90" width="248" height="247">
<circle cx="65" cy="33.5" r="121.797" fill="#C4C4C4" stroke="#F8BB54" stroke-width="3.4069"/>
</mask>
<g mask="url(#mask0_473_2539)">
<path d="M-130.272 15.6032C-130.272 15.6032 -33.6773 -0.0276192 -8.83139 -60.3608C14.8195 -117.906 112.859 -131.496 112.859 -131.496" stroke="#B2CD0D" stroke-width="3.82946" stroke-miterlimit="10"/>
<path d="M-130.272 33.5239C-130.272 33.5239 -20.6319 16.2504 7.54995 -51.749C34.3376 -116.562 145.522 -131.496 145.522 -131.496" stroke="#B2CD0D" stroke-width="3.82946" stroke-miterlimit="10"/>
<path d="M-130.272 51.4943C-130.272 51.4943 -7.6364 32.578 23.8815 -43.1372C53.9056 -115.268 178.235 -131.496 178.235 -131.496" stroke="#B2CD0D" stroke-width="3.82946" stroke-miterlimit="10"/>
<path d="M-130.272 69.415C-130.272 69.415 5.40893 48.8061 40.2629 -34.5251C73.424 -113.924 210.948 -131.496 210.948 -131.496" stroke="#B2CD0D" stroke-width="3.82946" stroke-miterlimit="10"/>
<path d="M-130.272 87.3357C-130.272 87.3357 18.4544 65.0841 56.5943 -25.9629C92.942 -112.58 243.661 -131.496 243.661 -131.496" stroke="#B2CD0D" stroke-width="3.82946" stroke-miterlimit="10"/>
<path d="M-130.272 105.307C-130.272 105.307 31.4497 81.4122 72.9757 -17.3015C112.46 -111.286 276.324 -131.496 276.324 -131.496" stroke="#B2CD0D" stroke-width="3.82946" stroke-miterlimit="10"/>
<path d="M-130.272 123.226C-130.272 123.226 44.4953 97.6902 89.3076 -8.68935C131.979 -109.942 309.037 -131.496 309.037 -131.496" stroke="#B2CD0D" stroke-width="3.82946" stroke-miterlimit="10"/>
<path d="M-130.272 141.196C-130.272 141.196 57.5405 113.968 105.689 -0.0775965C151.497 -108.598 341.749 -131.496 341.749 -131.496" stroke="#B2CD0D" stroke-width="3.82946" stroke-miterlimit="10"/>
<path d="M-130.272 159.119C-130.272 159.119 70.536 130.246 122.02 8.53457C171.015 -107.303 374.461 -131.496 374.461 -131.496" stroke="#B2CD0D" stroke-width="3.82946" stroke-miterlimit="10"/>
<path d="M-130.272 177.037C-130.272 177.037 83.5813 146.524 138.402 17.0964C190.533 -105.959 407.174 -131.496 407.174 -131.496" stroke="#B2CD0D" stroke-width="3.82946" stroke-miterlimit="10"/>
<path d="M-130.272 195.008C-130.272 195.008 96.6268 162.802 154.783 25.7581C210.051 -104.615 439.839 -131.496 439.839 -131.496" stroke="#B2CD0D" stroke-width="3.82946" stroke-miterlimit="10"/>
<path d="M-130.272 212.93C-130.272 212.93 109.622 179.08 171.115 34.3203C229.57 -103.321 472.551 -131.496 472.551 -131.496" stroke="#B2CD0D" stroke-width="3.82946" stroke-miterlimit="10"/>
<path d="M-130.272 230.852C-130.272 230.852 122.668 195.358 187.496 42.9321C249.088 -101.977 505.264 -131.496 505.264 -131.496" stroke="#B2CD0D" stroke-width="3.82946" stroke-miterlimit="10"/>
<path d="M-130.272 248.823C-130.272 248.823 135.713 211.685 203.827 51.5442C268.606 -100.633 537.977 -131.496 537.977 -131.496" stroke="#B2CD0D" stroke-width="3.82946" stroke-miterlimit="10"/>
<path d="M-130.272 266.742C-130.272 266.742 148.709 227.915 220.209 60.156C288.124 -99.3386 570.641 -131.496 570.641 -131.496" stroke="#B2CD0D" stroke-width="3.82946" stroke-miterlimit="10"/>
</g>
</svg>
